# xmcd
# Track frame offsets:
# 150
# 10099
# 22506
# 32623
# 45300
# 58290
# 70664
# 83241
# 98383
# 109385
# 120315
# 136927
# 146806
# 159411
# 168888
# 182297
# 192629
# 205409
# 217678
# 228293
#
# Disc length: 3198 seconds
# Revision: 0
# Processed by: cddbd v1.5.1PL0 Copyright (c) Steve Scherf et al.
# Submitted via: VisiTrax 2.9.9.209 - For more info visit www.synapsa.com
#
DISCID=f70c7c14
DTITLE=Various Artist - Country Gold  Vol. 3
DYEAR=1993
DGENRE=
TTITLE0=Eddy Arnold - What's he doing in my world
TTITLE1=Dave and Sugar - The door is always open
TTITLE2=Roger Miller - When two worlds collide
TTITLE3=Porter wagoner and Dolly Parton - Please don't stop loving me
TTITLE4=The Browns - The three bells
TTITLE5=Dottie West and Don Gibson - Rings of gold
TTITLE6=Jim Reeves - Blue side of lonesome
TTITLE7=Bobby Bare - (Margie's at) The Lincoln Park Inn
TTITLE8=Charlie Rich - There won't be anymore
TTITLE9=Waylon Jennings - This time
TTITLE10=Ronnie Milsap - It was almost like a song
TTITLE11=Jim Reeves - Oh how I miss you tonight
TTITLE12=Gary Stewart - Sh'e acting single (I'm drinking doubles)
TTITLE13=Dottie West - Country sunshine
TTITLE14=Dolly Parton - Here you come again
TTITLE15=Jerry Reed - When you're hot you're hot
TTITLE16=Johnny Russell - Red necks, white socks and blue ribbon beer
TTITLE17=Dickey Lee - Never ending song of love
TTITLE18=Nat Stuckey and Connie Smith - Young love
TTITLE19=Porter Wagoner - Misery loves company
EXTD=
EXTT0=
EXTT1=
EXTT2=
EXTT3=
EXTT4=
EXTT5=
EXTT6=
EXTT7=
EXTT8=
EXTT9=
EXTT10=
EXTT11=
EXTT12=
EXTT13=
EXTT14=
EXTT15=
EXTT16=
EXTT17=
EXTT18=
EXTT19=
PLAYORDER=
